<svg id="visual" viewBox="0 0 960 540" width="960" height="540" xmlns="http://www.w3.org/2000/svg" xmlns:xlink="http://www.w3.org/1999/xlink" version="1.1"><path d="M0 39L32 43.5C64 48 128 57 192 77.7C256 98.3 320 130.7 384 156.7C448 182.7 512 202.3 576 213.2C640 224 704 226 768 205.3C832 184.7 896 141.3 928 119.7L960 98L960 0L928 0C896 0 832 0 768 0C704 0 640 0 576 0C512 0 448 0 384 0C320 0 256 0 192 0C128 0 64 0 32 0L0 0Z" fill="#eef0f2"></path><path d="M0 158L32 152.5C64 147 128 136 192 145C256 154 320 183 384 202.8C448 222.7 512 233.3 576 246.8C640 260.3 704 276.7 768 259.5C832 242.3 896 191.7 928 166.3L960 141L960 96L928 117.7C896 139.3 832 182.7 768 203.3C704 224 640 222 576 211.2C512 200.3 448 180.7 384 154.7C320 128.7 256 96.3 192 75.7C128 55 64 46 32 41.5L0 37Z" fill="#aad0f7"></path><path d="M0 428L32 420.7C64 413.3 128 398.7 192 376.2C256 353.7 320 323.3 384 306.3C448 289.3 512 285.7 576 287.3C640 289 704 296 768 318.5C832 341 896 379 928 398L960 417L960 139L928 164.3C896 189.7 832 240.3 768 257.5C704 274.7 640 258.3 576 244.8C512 231.3 448 220.7 384 200.8C320 181 256 152 192 143C128 134 64 145 32 150.5L0 156Z" fill="#7ebcfa"></path><path d="M0 530L32 518.3C64 506.7 128 483.3 192 460.8C256 438.3 320 416.7 384 400.5C448 384.3 512 373.7 576 372.8C640 372 704 381 768 393.5C832 406 896 422 928 430L960 438L960 415L928 396C896 377 832 339 768 316.5C704 294 640 287 576 285.3C512 283.7 448 287.3 384 304.3C320 321.3 256 351.7 192 374.2C128 396.7 64 411.3 32 418.7L0 426Z" fill="#aad0f7"></path><path d="M0 541L32 541C64 541 128 541 192 541C256 541 320 541 384 541C448 541 512 541 576 541C640 541 704 541 768 541C832 541 896 541 928 541L960 541L960 436L928 428C896 420 832 404 768 391.5C704 379 640 370 576 370.8C512 371.7 448 382.3 384 398.5C320 414.7 256 436.3 192 458.8C128 481.3 64 504.7 32 516.3L0 528Z" fill="#eef0f2"></path></svg>