<svg id="visual" viewBox="0 0 960 540" width="960" height="540" xmlns="http://www.w3.org/2000/svg" xmlns:xlink="http://www.w3.org/1999/xlink" version="1.1"><path d="M0 39L32 51.5C64 64 128 89 192 160C256 231 320 348 384 361.5C448 375 512 285 576 208.5C640 132 704 69 768 41.2C832 13.3 896 20.7 928 24.3L960 28L960 0L928 0C896 0 832 0 768 0C704 0 640 0 576 0C512 0 448 0 384 0C320 0 256 0 192 0C128 0 64 0 32 0L0 0Z" fill="#a8d1fc"></path><path d="M0 66L32 92C64 118 128 170 192 243.8C256 317.7 320 413.3 384 408.8C448 404.3 512 299.7 576 222.2C640 144.7 704 94.3 768 82.7C832 71 896 98 928 111.5L960 125L960 26L928 22.3C896 18.7 832 11.3 768 39.2C704 67 640 130 576 206.5C512 283 448 373 384 359.5C320 346 256 229 192 158C128 87 64 62 32 49.5L0 37Z" fill="#75b4f5"></path><path d="M0 131L32 157C64 183 128 235 192 298C256 361 320 435 384 446.7C448 458.3 512 407.7 576 357.2C640 306.7 704 256.3 768 220.3C832 184.3 896 162.7 928 151.8L960 141L960 123L928 109.5C896 96 832 69 768 80.7C704 92.3 640 142.7 576 220.2C512 297.7 448 402.3 384 406.8C320 411.3 256 315.7 192 241.8C128 168 64 116 32 90L0 64Z" fill="#5b9ce4"></path><path d="M0 293L32 292C64 291 128 289 192 330.3C256 371.7 320 456.3 384 468C448 479.7 512 418.3 576 370.7C640 323 704 289 768 287.3C832 285.7 896 316.3 928 331.7L960 347L960 139L928 149.8C896 160.7 832 182.3 768 218.3C704 254.3 640 304.7 576 355.2C512 405.7 448 456.3 384 444.7C320 433 256 359 192 296C128 233 64 181 32 155L0 129Z" fill="#75b4f5"></path><path d="M0 541L32 541C64 541 128 541 192 541C256 541 320 541 384 541C448 541 512 541 576 541C640 541 704 541 768 541C832 541 896 541 928 541L960 541L960 345L928 329.7C896 314.3 832 283.7 768 285.3C704 287 640 321 576 368.7C512 416.3 448 477.7 384 466C320 454.3 256 369.7 192 328.3C128 287 64 289 32 290L0 291Z" fill="#a8d1fc"></path></svg>